<?xml version="1.0" standalone="no"?>
<!DOCTYPE svg PUBLIC "-//W3C//DTD SVG 20010904//EN"
 "http://www.w3.org/TR/2001/REC-SVG-20010904/DTD/svg10.dtd">
<svg version="1.0" xmlns="http://www.w3.org/2000/svg"
 width="1670.000000pt" height="1670.000000pt" viewBox="0 0 1670.000000 1670.000000"
 preserveAspectRatio="xMidYMid meet">
<metadata>
Created by potrace 1.11, written by Peter Selinger 2001-2013
</metadata>
<g transform="translate(0.000000,1670.000000) scale(0.100000,-0.100000)"
fill="#000000" stroke="none">
<path d="M9168 13125 c-2 -1 -28 -6 -58 -10 -30 -4 -66 -9 -80 -11 -14 -2 -41
-6 -60 -9 -19 -2 -48 -6 -65 -9 -53 -8 -109 -17 -140 -21 -40 -5 -103 -14
-143 -21 -17 -3 -47 -7 -65 -9 -17 -2 -50 -7 -72 -10 -22 -4 -53 -8 -70 -10
-16 -1 -30 -4 -30 -5 0 -1 -9 -3 -20 -4 -11 -2 -45 -7 -75 -11 -30 -4 -68 -9
-85 -11 -37 -4 -94 -12 -120 -18 -23 -4 -121 -19 -147 -22 -10 -1 -19 -2 -20
-4 -2 -1 -21 -3 -43 -5 -22 -2 -51 -6 -65 -8 -31 -6 -99 -16 -142 -23 -18 -2
-49 -7 -68 -10 -19 -3 -51 -7 -70 -9 -19 -2 -35 -5 -35 -6 0 -1 -13 -3 -30 -4
-16 -2 -48 -6 -70 -10 -22 -3 -53 -8 -70 -10 -32 -4 -96 -14 -130 -20 -11 -2
-42 -6 -70 -10 -110 -15 -245 -36 -270 -42 -11 -2 -33 -6 -50 -8 -16 -3 -41
-7 -55 -10 -14 -4 -41 -8 -60 -10 -35 -4 -75 -12 -75 -15 0 -1 -13 -3 -30 -5
-16 -2 -41 -6 -55 -9 -14 -2 -41 -7 -60 -10 -57 -9 -79 -14 -90 -21 -6 -3 -10
-1 -10 5 0 7 -5 8 -12 3 -7 -4 -16 -8 -20 -9 -5 -1 -9 -3 -10 -4 -2 -1 -14 -3
-28 -4 -23 -3 -62 -9 -120 -21 -35 -7 -89 -16 -114 -19 -12 -1 -27 -6 -34 -10
-7 -4 -16 -4 -22 -1 -5 3 -15 3 -22 -1 -6 -4 -26 -9 -42 -11 -56 -6 -71 -9
-81 -15 -6 -3 -18 -4 -27 -3 -10 2 -18 0 -18 -3 0 -4 -10 -8 -22 -8 -52 -3
-98 -9 -98 -14 0 -3 -10 -5 -22 -6 -34 -2 -145 -20 -188 -31 -14 -3 -36 -7
-50 -8 -14 -1 -25 -3 -25 -5 0 -1 -11 -3 -25 -5 -41 -5 -101 -15 -180 -31 -41
-9 -93 -18 -115 -20 -22 -3 -47 -7 -55 -10 -8 -4 -33 -7 -55 -9 -22 -1 -49 -5
-60 -8 -20 -6 -61 -15 -100 -21 -11 -2 -38 -6 -60 -10 -23 -3 -52 -9 -65 -11
-26 -6 -61 -12 -120 -21 -54 -9 -75 -12 -80 -14 -3 -1 -8 -2 -11 -2 -3 0 -23
-4 -45 -9 -21 -5 -49 -12 -61 -14 -13 -3 -35 -8 -50 -11 -16 -3 -38 -6 -50 -7
-13 -1 -23 -4 -23 -7 0 -3 -11 -7 -24 -8 -13 -1 -49 -8 -81 -17 -32 -8 -61
-13 -63 -10 -3 2 -14 -1 -25 -6 -11 -6 -29 -13 -41 -14 -11 -2 -38 -6 -58 -9
-20 -4 -48 -10 -62 -16 -14 -5 -26 -7 -26 -5 0 2 -10 1 -23 -4 -13 -5 -39 -12
-58 -15 -19 -3 -45 -8 -59 -11 -14 -3 -36 -8 -50 -11 -14 -3 -32 -7 -40 -9 -8
-2 -15 -4 -15 -5 0 -1 -9 -3 -20 -5 -37 -5 -70 -13 -96 -23 -15 -6 -30 -8 -33
-5 -3 4 -6 2 -6 -4 0 -5 -6 -10 -12 -11 -23 -1 -58 -11 -71 -19 -6 -4 -16 -8
-22 -9 -12 -2 -193 -62 -215 -71 -8 -4 -18 -7 -22 -8 -5 -2 -9 -3 -10 -5 -2
-1 -10 -3 -18 -5 -49 -10 -448 -149 -461 -161 -8 -8 -20 -14 -25 -14 -9 0 -95
-41 -104 -50 -3 -3 -68 -36 -145 -75 -77 -38 -142 -72 -145 -75 -3 -4 -41 -31
-85 -61 -44 -30 -84 -60 -88 -66 -4 -7 -12 -13 -18 -13 -5 0 -15 -5 -22 -11
-7 -5 -38 -29 -70 -53 -31 -23 -79 -72 -106 -109 -27 -36 -52 -63 -56 -59 -3
4 -6 2 -5 -3 4 -19 0 -38 -7 -32 -7 8 -43 -67 -43 -89 0 -8 -4 -14 -9 -14 -8
0 -18 -18 -26 -50 -8 -26 -37 -80 -44 -80 -5 0 -8 -8 -7 -17 2 -9 -3 -28 -11
-42 -7 -15 -13 -34 -13 -43 0 -10 -5 -18 -11 -18 -5 0 -7 -4 -4 -10 3 -5 3
-16 -2 -22 -4 -7 -9 -22 -10 -32 -2 -11 -8 -25 -14 -33 -6 -7 -9 -13 -5 -13 3
0 -6 -33 -20 -72 -30 -87 -34 -97 -33 -101 0 -1 -8 -25 -20 -53 -11 -29 -17
-55 -14 -58 4 -3 1 -6 -6 -6 -7 0 -10 -4 -7 -8 3 -5 -1 -20 -9 -35 -8 -15 -12
-27 -10 -27 2 0 -7 -30 -20 -67 -13 -36 -22 -69 -20 -73 3 -4 -2 -13 -10 -20
-8 -7 -12 -16 -9 -22 3 -5 0 -15 -6 -23 -7 -8 -9 -15 -5 -15 4 0 2 -6 -4 -13
-6 -8 -8 -17 -4 -20 3 -4 1 -7 -6 -7 -7 0 -11 -7 -8 -15 4 -8 3 -16 -1 -19 -5
-3 -14 -28 -22 -55 -7 -28 -17 -51 -21 -51 -4 0 -5 -9 -2 -20 3 -12 0 -20 -8
-20 -7 0 -10 -3 -6 -6 3 -4 0 -22 -8 -40 -8 -19 -14 -36 -15 -39 -2 -11 -12
-41 -19 -55 -4 -8 -7 -23 -5 -32 1 -10 -1 -18 -5 -18 -4 0 -8 -6 -9 -12 0 -7
-14 -51 -31 -98 -17 -47 -30 -85 -30 -85 4 0 -16 -63 -22 -71 -5 -6 -10 -23
-11 -38 -1 -14 -5 -26 -8 -26 -3 0 -11 -21 -19 -47 -7 -27 -17 -57 -21 -68
-12 -28 -85 -248 -86 -260 0 -5 -3 -17 -7 -25 -3 -8 -8 -28 -12 -45 -6 -29
-37 -117 -157 -445 -109 -295 -175 -504 -284 -900 -49 -179 -55 -202 -64 -230
-4 -14 -13 -43 -18 -65 -6 -22 -23 -80 -36 -130 -20 -73 -105 -469 -122 -575
-3 -14 -11 -56 -19 -95 -8 -38 -17 -81 -19 -95 -2 -14 -11 -53 -20 -87 -17
-64 -22 -124 -31 -333 -2 -69 -7 -174 -10 -235 -3 -60 -7 -162 -10 -225 -9
-216 -16 -365 -20 -450 -3 -47 -7 -152 -10 -235 -4 -82 -8 -186 -10 -230 -3
-44 -7 -150 -10 -235 -4 -85 -8 -175 -10 -200 -2 -25 -4 -55 -4 -67 -1 -18 -7
-23 -26 -23 -37 0 -90 -53 -104 -102 -8 -29 -11 -110 -9 -244 3 -213 4 -215
55 -242 32 -17 16271 -17 16308 0 58 26 55 -47 55 1377 l0 1309 63 1 c78 1
112 8 142 27 55 36 67 80 66 235 -1 150 -15 189 -86 227 -24 13 -68 17 -219
18 l-189 3 -76 75 c-42 41 -103 100 -136 132 -33 31 -99 94 -148 140 l-87 84
-119 0 -119 0 -42 38 c-24 20 -55 48 -70 62 -15 14 -60 54 -100 90 -40 36 -85
76 -100 90 -47 43 -191 174 -219 198 -14 13 -49 45 -78 72 -28 28 -54 50 -56
50 -3 0 -25 19 -50 42 -24 24 -82 77 -127 118 -46 41 -99 90 -118 108 -18 17
-36 32 -38 32 -3 0 -30 25 -60 55 -31 30 -58 55 -61 55 -3 0 -18 12 -33 28
-58 58 -110 102 -120 102 -6 0 -8 5 -5 10 3 6 3 10 -2 10 -4 0 -30 21 -58 46
-27 26 -76 69 -108 98 -33 28 -80 71 -107 96 -26 25 -81 74 -121 110 -40 36
-84 75 -97 88 -12 12 -27 22 -33 22 -6 0 -7 5 -4 10 3 6 2 10 -3 10 -5 0 -33
21 -61 48 -28 26 -76 70 -107 97 -31 28 -77 69 -101 93 -25 23 -48 42 -50 42
-3 0 -23 18 -44 40 -22 22 -42 40 -45 40 -3 0 -23 18 -44 40 -21 22 -43 40
-49 40 -5 0 -13 9 -16 20 -3 11 -10 20 -14 20 -5 0 -22 13 -39 29 -16 16 -33
27 -36 24 -3 -4 -6 1 -6 10 0 10 -4 17 -9 17 -6 0 -30 19 -54 43 -73 69 -147
136 -147 132 0 -2 -25 21 -55 51 -31 30 -58 54 -61 54 -3 0 -27 22 -54 49 -27
27 -51 46 -54 43 -3 -3 -6 3 -6 13 0 10 -3 16 -6 13 -3 -4 -22 10 -43 30 -51
51 -124 112 -134 112 -5 0 -5 5 -2 10 3 6 2 10 -3 10 -4 0 -33 22 -63 50 -30
27 -70 65 -90 82 -84 76 -204 185 -231 211 -17 15 -34 27 -39 27 -5 0 -9 7 -9
15 0 8 -3 15 -7 15 -12 0 -72 50 -130 108 -29 28 -57 52 -63 52 -6 0 -8 5 -5
10 3 6 -1 10 -9 10 -9 0 -23 11 -32 25 -9 13 -24 27 -35 30 -11 4 -17 11 -14
16 4 5 2 9 -4 9 -6 0 -28 18 -50 39 -22 21 -42 36 -45 33 -3 -3 -6 2 -6 11 0
10 -4 17 -9 17 -8 0 -64 48 -153 133 -22 20 -44 37 -49 37 -5 0 -9 7 -9 15 0
8 -6 15 -13 15 -7 0 -18 9 -25 20 -7 11 -19 20 -28 20 -8 0 -12 5 -9 10 3 6 2
10 -3 10 -6 0 -30 19 -55 43 -25 23 -73 67 -107 97 -34 30 -71 65 -82 77 -12
12 -25 20 -30 17 -4 -3 -8 0 -8 6 0 6 -7 18 -15 26 -8 9 -15 13 -15 11 0 -3
-20 14 -44 39 -25 24 -49 44 -55 44 -6 0 -11 6 -11 13 0 6 -14 21 -30 32 -16
11 -30 23 -30 28 0 4 -7 7 -16 7 -8 0 -13 4 -9 9 3 5 -4 12 -15 16 -11 3 -20
14 -20 22 0 9 -3 14 -6 10 -4 -3 -20 9 -37 28 -17 19 -37 35 -44 35 -7 0 -13
8 -13 17 0 9 -3 14 -6 11 -3 -3 -23 12 -45 33 -22 21 -44 39 -50 39 -6 0 -7 5
-4 10 3 6 2 10 -4 10 -5 0 -23 14 -39 30 -17 17 -35 30 -41 30 -6 0 -11 7 -11
16 0 8 -3 13 -7 11 -11 -6 -53 40 -45 49 4 4 2 4 -5 1 -6 -4 -20 4 -31 18 -11
13 -22 21 -26 18 -3 -3 -6 1 -6 11 0 9 -4 15 -8 12 -5 -3 -19 6 -30 19 -12 14
-26 25 -32 25 -5 0 -10 7 -10 15 0 8 -4 15 -9 15 -5 0 -27 17 -49 38 -101 93
-151 139 -180 161 -17 13 -29 29 -25 35 3 6 3 8 -2 4 -4 -4 -21 6 -37 22 -15
17 -32 30 -36 30 -4 0 -13 9 -20 20 -7 11 -19 20 -28 20 -8 0 -12 5 -9 10 3 6
2 10 -2 10 -5 0 -32 23 -61 50 -29 28 -57 50 -63 50 -6 0 -7 5 -4 10 3 6 1 10
-6 10 -6 0 -30 19 -53 43 -23 23 -54 51 -69 62 -19 14 -23 22 -16 32 7 7 11
75 11 169 -1 145 -2 159 -21 177 -23 23 -91 30 -164 17 -55 -11 -163 -23 -204
-24 -18 -1 -33 -3 -33 -6 0 -3 -8 -6 -17 -6 -20 -1 -106 -11 -168 -21 -22 -3
-57 -6 -77 -7 -21 0 -38 -3 -38 -6 0 -3 -10 -5 -22 -6 -32 -1 -139 -13 -167
-19 -20 -4 -75 -11 -161 -21 -14 -1 -45 -5 -70 -8 -58 -8 -138 -18 -170 -21
-14 -2 -38 -5 -55 -8 -28 -5 -68 -10 -175 -23 -77 -9 -95 -12 -95 -14 0 -1
-13 -3 -29 -4 -16 -1 -31 -7 -34 -14 -2 -7 -8 -12 -14 -12 -5 0 -17 -8 -26
-17 -14 -14 -17 -42 -19 -177 -2 -182 1 -192 70 -203 l39 -6 -29 -24 c-15 -13
-38 -31 -50 -41 -13 -9 -33 -26 -46 -37 -50 -43 -129 -108 -183 -150 -14 -11
-31 -25 -37 -31 -7 -5 -39 -32 -72 -58 -33 -27 -62 -52 -65 -56 -3 -3 -23 -19
-45 -35 -22 -16 -47 -36 -56 -45 -9 -8 -33 -28 -53 -45 -21 -16 -48 -39 -61
-50 -12 -11 -36 -30 -52 -42 -16 -12 -42 -34 -56 -47 -15 -14 -27 -23 -27 -19
0 3 -9 -5 -20 -18 -10 -13 -19 -21 -20 -17 0 4 -13 -5 -28 -20 -15 -15 -43
-38 -61 -52 -17 -14 -42 -34 -55 -45 -12 -11 -39 -33 -60 -50 -41 -32 -65 -53
-108 -91 -16 -13 -28 -22 -28 -19 0 3 -8 -3 -18 -12 -9 -10 -40 -36 -67 -58
-28 -22 -52 -42 -55 -45 -3 -3 -32 -27 -65 -53 -33 -26 -72 -58 -86 -70 -15
-12 -43 -35 -64 -52 -21 -16 -47 -38 -57 -47 -10 -10 -18 -16 -18 -13 0 2 -10
-6 -23 -18 -12 -12 -81 -69 -152 -127 -71 -58 -137 -113 -147 -122 -10 -10
-21 -18 -26 -18 -4 0 -13 -9 -20 -21 -7 -12 -16 -19 -18 -16 -3 3 -15 -5 -28
-17 -26 -25 -54 -48 -116 -96 -25 -19 -55 -45 -67 -58 -13 -13 -23 -21 -23
-18 0 4 -9 -3 -20 -14 -11 -11 -24 -20 -30 -20 -6 0 -10 -7 -10 -16 0 -8 -4
-13 -9 -9 -6 3 -13 -1 -18 -8 -4 -7 -24 -24 -43 -37 -19 -14 -42 -32 -51 -40
-9 -8 -35 -31 -58 -50 -24 -19 -51 -42 -61 -50 -10 -8 -33 -27 -51 -42 -19
-14 -47 -38 -64 -52 -16 -14 -33 -26 -37 -26 -5 0 -8 -7 -8 -17 0 -9 -3 -13
-7 -10 -5 6 -59 -33 -114 -83 -10 -8 -28 -25 -42 -37 -14 -13 -29 -23 -35 -23
-6 0 -12 -4 -14 -9 -1 -5 -43 -42 -93 -81 -49 -40 -92 -75 -95 -79 -3 -3 -25
-22 -50 -41 -25 -19 -49 -38 -55 -43 -5 -4 -21 -17 -36 -30 -14 -12 -42 -35
-63 -52 -22 -16 -44 -35 -50 -40 -6 -6 -63 -52 -126 -103 -63 -51 -126 -103
-140 -115 -14 -13 -45 -39 -70 -58 -24 -19 -52 -41 -60 -49 -9 -8 -31 -26 -50
-40 -19 -14 -41 -32 -50 -40 -8 -8 -55 -46 -103 -84 -48 -38 -87 -73 -87 -78
0 -4 -6 -8 -13 -8 -7 0 -20 -8 -29 -17 -9 -10 -23 -22 -30 -28 -8 -5 -41 -34
-75 -62 -34 -29 -64 -53 -68 -53 -3 0 -16 -11 -29 -25 -13 -14 -27 -25 -31
-25 -4 0 -15 -8 -24 -18 -9 -9 -43 -39 -76 -65 -33 -26 -71 -58 -85 -70 -22
-20 -51 -43 -144 -117 -10 -8 -27 -23 -38 -32 -10 -10 -20 -18 -23 -18 -3 0
-13 -8 -24 -17 -56 -53 -80 -73 -88 -73 -4 0 -14 -9 -21 -20 -7 -11 -17 -20
-23 -20 -5 0 -20 -10 -32 -23 -12 -12 -38 -34 -57 -49 -19 -14 -45 -34 -56
-44 -12 -11 -37 -31 -55 -46 -19 -14 -44 -35 -56 -45 -23 -19 -28 -23 -113
-92 -30 -25 -59 -50 -65 -56 -5 -6 -28 -24 -50 -40 -22 -17 -51 -40 -65 -51
-43 -37 -117 -98 -136 -114 -88 -69 -191 -155 -200 -166 -6 -8 -14 -14 -18
-14 -7 0 -22 -11 -54 -40 -9 -9 -42 -36 -72 -60 -30 -25 -68 -57 -85 -72 -16
-16 -33 -28 -37 -28 -4 0 -20 -12 -36 -27 -16 -16 -44 -40 -63 -55 -19 -14
-44 -35 -55 -45 -12 -10 -36 -29 -54 -43 -18 -14 -38 -30 -44 -35 -31 -28
-176 -146 -177 -143 -6 27 -6 37 1 33 5 -3 7 9 6 27 -2 18 -1 38 3 43 3 6 6
18 7 28 1 9 3 18 4 20 1 1 3 13 5 27 1 14 6 43 10 65 4 22 9 54 10 70 2 17 4
30 5 30 2 0 5 20 15 95 4 25 10 59 15 75 5 17 10 48 11 70 1 22 5 45 8 50 3 6
6 19 7 30 6 63 14 117 19 125 3 5 8 33 11 62 3 28 8 56 12 62 3 6 7 27 8 48 1
20 5 42 10 49 4 8 3 9 -4 5 -7 -4 -5 8 4 29 8 20 12 40 9 45 -4 6 -3 10 2 10
7 0 12 33 16 113 1 15 5 27 9 27 4 0 5 9 3 21 -2 11 0 31 5 44 5 13 11 47 14
75 3 27 8 55 11 60 3 5 8 31 10 57 2 27 7 59 11 73 3 14 7 39 9 55 3 28 13 86
36 201 5 29 12 69 14 90 2 22 8 55 13 74 5 20 8 44 6 54 -1 10 2 29 7 43 5 13
11 39 14 56 2 18 6 46 9 62 3 17 7 53 10 80 4 28 8 61 10 75 7 41 19 143 21
165 1 18 4 47 22 170 3 22 7 54 8 70 1 17 6 55 10 85 4 30 9 66 10 80 2 14 6
41 8 60 3 19 9 62 12 95 4 32 8 66 10 75 2 13 5 38 21 170 2 19 7 53 10 75 3
22 7 54 9 70 10 103 18 165 26 202 5 24 8 46 7 50 -1 5 1 28 5 53 4 25 10 67
12 94 3 27 10 56 16 63 7 7 9 13 6 13 -7 0 39 153 60 200 55 124 76 160 123
205 66 64 76 72 135 119 28 22 57 47 66 55 36 35 92 75 132 93 23 11 49 24 57
29 8 5 25 13 36 18 12 5 55 25 95 44 69 32 102 46 114 47 3 0 25 9 50 20 25
11 45 17 45 14 0 -2 15 3 32 13 18 9 37 16 42 15 4 -2 14 3 22 9 8 6 14 8 14
3 0 -4 5 -3 12 4 7 7 18 12 26 12 8 0 28 6 45 14 18 8 66 26 107 41 41 14 81
28 88 30 7 2 14 3 16 2 1 -1 10 4 19 12 10 7 17 11 17 8 0 -3 17 1 37 9 20 9
45 18 55 20 10 2 28 7 40 10 13 3 35 7 49 9 14 2 37 8 50 13 13 5 32 8 42 7 9
-2 17 1 17 6 0 6 3 8 8 5 4 -2 59 7 122 21 154 33 151 32 185 39 29 5 98 20
140 31 11 2 31 6 45 8 14 2 25 4 25 5 0 3 39 11 75 15 19 2 35 4 35 5 0 4 120
27 184 35 14 2 26 4 26 5 0 2 37 9 75 14 19 3 46 7 60 10 14 4 39 8 55 11 17
3 41 8 55 10 49 10 75 15 110 20 20 3 47 8 60 11 14 3 39 7 55 9 17 3 55 10
85 16 30 7 62 13 70 14 8 1 35 5 60 10 25 4 54 9 65 11 11 1 20 3 20 4 0 2 17
5 140 25 11 2 20 4 20 5 0 3 37 9 80 15 22 2 51 7 65 10 14 3 39 8 55 10 17 3
44 8 60 11 17 4 39 8 50 10 11 2 36 6 55 10 19 3 46 8 60 9 14 2 25 4 25 5 0
1 9 3 20 5 11 1 36 6 55 10 19 3 46 8 60 10 14 2 63 10 110 19 47 9 99 18 115
21 17 2 41 7 55 10 58 12 87 17 115 20 17 2 30 4 30 5 0 3 99 21 145 25 19 2
46 6 60 9 14 4 41 8 60 11 19 3 46 7 60 10 14 4 39 8 55 10 105 14 140 21 157
31 7 4 8 3 4 -4 -5 -9 -1 -9 16 -3 13 5 46 12 73 15 28 4 57 9 65 11 8 2 32 6
53 9 20 3 52 8 70 11 64 10 103 16 137 21 19 3 46 7 60 10 54 12 159 28 188
28 12 1 22 4 22 7 0 3 11 5 25 4 14 -2 25 0 25 4 0 4 10 7 23 8 25 1 94 9 152
19 22 3 46 11 53 16 8 7 12 7 12 -1 0 -7 4 -10 9 -6 6 3 32 8 58 11 53 5 105
12 143 19 14 2 45 6 70 9 25 2 61 7 80 11 19 4 58 8 85 10 28 2 50 4 50 5 0 3
38 9 85 14 25 2 46 5 48 6 1 2 10 3 20 4 9 1 37 5 62 9 45 7 110 15 173 22 44
6 131 18 217 30 52 8 65 13 62 24 -2 12 -13 115 -16 155 -1 16 -27 31 -38 21z"/>
</g>
</svg>
